<svg width="33" height="33" viewBox="0 0 33 33" fill="none" xmlns="http://www.w3.org/2000/svg">
<path d="M28.655 6.33875C27.9527 5.63613 27.1188 5.07876 26.2011 4.69849C25.2833 4.31822 24.2997 4.12249 23.3062 4.12249C22.3128 4.12249 21.3291 4.31822 20.4114 4.69849C19.4936 5.07876 18.6598 5.63613 17.9575 6.33875L16.5 7.79625L15.0425 6.33875C13.6239 4.92017 11.6999 4.12323 9.69373 4.12323C7.68756 4.12323 5.76356 4.92017 4.34498 6.33875C2.9264 7.75733 2.12946 9.68133 2.12946 11.6875C2.12946 13.6937 2.9264 15.6177 4.34498 17.0362L5.80248 18.4937L16.5 29.1912L27.1975 18.4937L28.655 17.0362C29.3576 16.334 29.915 15.5001 30.2952 14.5824C30.6755 13.6646 30.8712 12.6809 30.8712 11.6875C30.8712 10.6941 30.6755 9.71039 30.2952 8.79264C29.915 7.87488 29.3576 7.04104 28.655 6.33875Z" stroke="#FF8A8A" stroke-width="4" stroke-linecap="round" stroke-linejoin="round"/>
</svg>
